<mxfile host="app.diagrams.net" modified="2023-12-20T13:49:21.993Z" agent="Mozilla/5.0 (Windows NT 10.0; Win64; x64) AppleWebKit/537.36 (KHTML, like Gecko) Chrome/119.0.0.0 Safari/537.36 OPR/105.0.0.0" etag="oRm1YfReIiSclgp70jkP" version="22.1.11" type="github">
  <diagram name="Page-1" id="keuIJhnnj23qZGBHVb3S">
    <mxGraphModel dx="2690" dy="799" grid="1" gridSize="10" guides="1" tooltips="1" connect="1" arrows="1" fold="1" page="1" pageScale="1" pageWidth="850" pageHeight="1100" math="0" shadow="0">
      <root>
        <mxCell id="0" />
        <mxCell id="1" parent="0" />
        <mxCell id="8NyJKUf_lK8EkmBxOrXg-1" value="&lt;font style=&quot;font-size: 18px;&quot;&gt;Người chơi&lt;/font&gt;" style="rounded=0;whiteSpace=wrap;html=1;" vertex="1" parent="1">
          <mxGeometry x="40" y="40" width="160" height="90" as="geometry" />
        </mxCell>
        <mxCell id="8NyJKUf_lK8EkmBxOrXg-2" value="&lt;font style=&quot;font-size: 18px;&quot;&gt;Màn hình chờ&lt;/font&gt;" style="rounded=1;whiteSpace=wrap;html=1;" vertex="1" parent="1">
          <mxGeometry x="360" y="120" width="160" height="80" as="geometry" />
        </mxCell>
        <mxCell id="8NyJKUf_lK8EkmBxOrXg-3" value="" style="edgeStyle=segmentEdgeStyle;endArrow=classic;html=1;curved=0;rounded=0;endSize=8;startSize=8;" edge="1" parent="1" target="8NyJKUf_lK8EkmBxOrXg-2">
          <mxGeometry width="50" height="50" relative="1" as="geometry">
            <mxPoint x="200" y="80" as="sourcePoint" />
            <mxPoint x="250" y="30" as="targetPoint" />
          </mxGeometry>
        </mxCell>
        <mxCell id="8NyJKUf_lK8EkmBxOrXg-4" value="Click vào Play game" style="text;html=1;align=center;verticalAlign=middle;resizable=0;points=[];autosize=1;strokeColor=none;fillColor=none;" vertex="1" parent="1">
          <mxGeometry x="250" y="50" width="130" height="30" as="geometry" />
        </mxCell>
        <mxCell id="8NyJKUf_lK8EkmBxOrXg-5" value="" style="edgeStyle=segmentEdgeStyle;endArrow=classic;html=1;curved=0;rounded=0;endSize=8;startSize=8;" edge="1" parent="1" target="8NyJKUf_lK8EkmBxOrXg-6">
          <mxGeometry width="50" height="50" relative="1" as="geometry">
            <mxPoint x="520" y="160" as="sourcePoint" />
            <mxPoint x="560" y="320" as="targetPoint" />
          </mxGeometry>
        </mxCell>
        <mxCell id="8NyJKUf_lK8EkmBxOrXg-6" value="&lt;span style=&quot;font-size: 18px;&quot;&gt;Hệ thống&lt;/span&gt;" style="rounded=1;whiteSpace=wrap;html=1;" vertex="1" parent="1">
          <mxGeometry x="500" y="320" width="140" height="90" as="geometry" />
        </mxCell>
        <mxCell id="8NyJKUf_lK8EkmBxOrXg-7" value="&lt;span style=&quot;font-size: 18px;&quot;&gt;Hiển thị màn hình trong game&lt;/span&gt;" style="rounded=1;whiteSpace=wrap;html=1;" vertex="1" parent="1">
          <mxGeometry x="170" y="320" width="150" height="85" as="geometry" />
        </mxCell>
        <mxCell id="8NyJKUf_lK8EkmBxOrXg-8" value="" style="edgeStyle=segmentEdgeStyle;endArrow=classic;html=1;curved=0;rounded=0;endSize=8;startSize=8;exitX=0;exitY=0.5;exitDx=0;exitDy=0;" edge="1" parent="1" source="8NyJKUf_lK8EkmBxOrXg-6" target="8NyJKUf_lK8EkmBxOrXg-7">
          <mxGeometry width="50" height="50" relative="1" as="geometry">
            <mxPoint x="400" y="310" as="sourcePoint" />
            <mxPoint x="450" y="260" as="targetPoint" />
          </mxGeometry>
        </mxCell>
        <mxCell id="8NyJKUf_lK8EkmBxOrXg-9" value="" style="edgeStyle=segmentEdgeStyle;endArrow=classic;html=1;curved=0;rounded=0;endSize=8;startSize=8;exitX=0;exitY=0.5;exitDx=0;exitDy=0;entryX=0.5;entryY=1;entryDx=0;entryDy=0;" edge="1" parent="1" source="8NyJKUf_lK8EkmBxOrXg-7" target="8NyJKUf_lK8EkmBxOrXg-1">
          <mxGeometry width="50" height="50" relative="1" as="geometry">
            <mxPoint x="40" y="310" as="sourcePoint" />
            <mxPoint x="90" y="260" as="targetPoint" />
          </mxGeometry>
        </mxCell>
        <mxCell id="8NyJKUf_lK8EkmBxOrXg-10" value="Thông báo vào game" style="text;html=1;align=center;verticalAlign=middle;resizable=0;points=[];autosize=1;strokeColor=none;fillColor=none;" vertex="1" parent="1">
          <mxGeometry x="-12" y="220" width="140" height="30" as="geometry" />
        </mxCell>
      </root>
    </mxGraphModel>
  </diagram>
</mxfile>
